<svg width="24" height="28" viewBox="0 0 24 28" fill="none" xmlns="http://www.w3.org/2000/svg">
<path d="M21.3702 24.652C19.9218 26.8575 18.4762 27.9488 17.045 27.9488C16.4736 27.9488 15.6994 27.7631 14.6881 27.4117C13.6967 27.0403 12.8368 26.8746 12.1483 26.8746C11.4741 26.8746 10.6685 27.0603 9.75998 27.4289C8.83436 27.8145 8.09444 28.0002 7.54021 28.0002C5.8061 28.0002 4.14055 26.5375 2.47501 23.6435C0.843747 20.7496 0.000976562 17.9413 0.000976562 15.1816C0.000976562 12.6075 0.640911 10.522 1.90364 8.88791C3.16637 7.27379 4.74621 6.4653 6.68315 6.4653C7.50878 6.4653 8.48297 6.63385 9.65999 6.97096C10.8199 7.30807 11.5941 7.47662 11.9826 7.47662C12.4711 7.47662 13.2768 7.29093 14.3881 6.90525C15.4994 6.53386 16.4736 6.33388 17.2992 6.33388C18.6448 6.33388 19.839 6.70527 20.8817 7.42806C21.4702 7.83087 22.0587 8.4051 22.6301 9.11074C21.7559 9.85067 21.116 10.5077 20.7131 11.0963C19.9904 12.139 19.619 13.3017 19.619 14.5788C19.619 15.9586 20.0047 17.2213 20.7789 18.3298C21.5531 19.4411 22.4444 20.1468 23.4386 20.4496C23.0186 21.7752 22.3444 23.1893 21.3702 24.652ZM16.625 2.99708C16.2879 3.837 15.7679 4.6112 15.0594 5.3197C14.4538 5.92535 13.8481 6.32817 13.2425 6.53101C12.8568 6.64814 12.2826 6.75098 11.4941 6.81669C11.5284 5.15115 11.9655 3.70272 12.8054 2.49142C13.6453 1.28011 15.0594 0.454484 17.0107 0.000244141C17.045 0.151657 17.0792 0.268788 17.0935 0.371635C17.0935 0.488766 17.1107 0.591612 17.1107 0.708743C17.1135 1.4001 16.945 2.17431 16.625 2.99708Z" fill="white"/>
</svg>
