<svg width="28" height="28" viewBox="0 0 28 28" fill="none" xmlns="http://www.w3.org/2000/svg">
<path d="M14.001 11.9945H27.2181C27.3638 12.8088 27.4381 13.586 27.4381 14.3288C27.4381 16.966 26.8838 19.3202 25.7781 21.3917C24.6724 23.4631 23.0953 25.0831 21.0467 26.2488C18.9981 27.4145 16.6495 28.0002 14.001 28.0002C12.0924 28.0002 10.2753 27.6317 8.54955 26.8974C6.82383 26.1631 5.33526 25.1688 4.08383 23.9174C2.83241 22.666 1.83812 21.1774 1.10383 19.4517C0.369548 17.726 0.000976562 15.9088 0.000976562 14.0002C0.000976562 12.0917 0.369548 10.2745 1.10383 8.54882C1.83812 6.8231 2.83241 5.33453 4.08383 4.0831C5.33526 2.83167 6.82383 1.83739 8.54955 1.1031C10.2753 0.368816 12.0924 0.000244141 14.001 0.000244141C17.6467 0.000244141 20.7753 1.22024 23.3895 3.6631L19.5781 7.32882C18.0838 5.8831 16.2238 5.16024 14.001 5.16024C12.4324 5.16024 10.9838 5.55453 9.6524 6.34596C8.32098 7.13453 7.26669 8.20882 6.48955 9.5631C5.7124 10.9174 5.32383 12.3974 5.32383 14.0031C5.32383 15.6088 5.7124 17.086 6.48955 18.4431C7.26669 19.8002 8.32098 20.8717 9.6524 21.6602C10.9838 22.4488 12.4324 22.846 14.001 22.846C15.0581 22.846 16.0295 22.7002 16.9181 22.4088C17.8067 22.1174 18.5353 21.7517 19.1067 21.3145C19.6781 20.8774 20.1753 20.3774 20.601 19.8202C21.0267 19.2602 21.3381 18.7317 21.541 18.2345C21.741 17.7374 21.8781 17.2631 21.9524 16.8117H14.001V11.9945Z" fill="white"/>
</svg>
