<svg width="227" height="151" viewBox="0 0 227 151" fill="none" xmlns="http://www.w3.org/2000/svg">
<path fill-rule="evenodd" clip-rule="evenodd" d="M140 73.5C140 49.4756 159.476 30 183.5 30C207.524 30 227 49.4756 227 73.5C227 97.5244 207.524 117 183.5 117V107L140 73.5ZM183.5 40C164.998 40 150 54.9984 150 73.5H140L183.5 107C202.002 107 217 92.0015 217 73.5C217 54.9984 202.002 40 183.5 40Z" fill="white"/>
<path d="M140 1H150V114H140V1Z" fill="white"/>
<path d="M94.0001 72C100 67 108.818 59.1761 112 55C115.182 50.8239 118.591 47.8352 120.023 44.2954C121.494 40.7557 122.23 37.0767 122.23 33.2585C122.23 28.6051 121.136 24.5483 118.949 21.088C116.801 17.588 113.838 14.8636 110.06 12.9147C106.281 10.9659 102.025 9.99146 97.2925 9.99146C92.2811 9.99146 87.8862 11.0653 84.1078 13.213C80.3692 15.3608 77.2449 18.19 75.3976 22.0426C73.5 26 72.5 29 72.5 29L63 24C63 24 63.5 22.5 66.2698 16.9716C69.4118 11.7216 73.6874 7.60509 79.0965 4.62213C84.5453 1.63918 90.7101 0.147705 97.5908 0.147705C104.392 0.147705 110.437 1.6193 115.727 4.56248C121.017 7.46589 125.173 11.4233 128.196 16.4346C131.219 21.446 132.73 27.054 132.73 33.2585C132.73 37.7528 131.935 42.1079 130.344 46.3238C128.792 50.5398 125.318 54.8295 121.5 60C117.682 65.1705 101 79.5 94.0001 86V72Z" fill="white"/>
<path fill-rule="evenodd" clip-rule="evenodd" d="M43.5 117C19.4756 117 1.05014e-06 97.5244 0 73.5C-1.05014e-06 49.4756 19.4756 30 43.5 30C67.5244 30 87 49.4756 87 73.5V104H132V114H77V73.5L43.5 117ZM10 73.5C10 92.0016 24.9984 107 43.5 107V117L77 73.5C77 54.9985 62.0015 40 43.5 40C24.9984 40 10 54.9985 10 73.5Z" fill="white"/>
<path d="M1.41193 131.87V146.584H0V131.87H1.41193ZM11.7432 131.87L4.53426 138.61L0.906852 141.753L0.769102 140.369L3.6848 137.701L9.97537 131.87H11.7432ZM10.5723 146.584L3.53558 139.025L4.38503 138.024L12.2827 146.584H10.5723Z" fill="white"/>
<path d="M15.8986 131.061V146.584H14.5326V131.061H15.8986ZM15.5887 140.439L14.9803 140.136C15.0262 139.489 15.1754 138.883 15.428 138.317C15.6805 137.751 16.0211 137.253 16.4496 136.821C16.8858 136.39 17.3947 136.053 17.9763 135.811C18.5656 135.568 19.2161 135.447 19.9278 135.447C20.5477 135.447 21.1025 135.521 21.5923 135.669C22.082 135.818 22.4991 136.053 22.8435 136.377C23.1879 136.7 23.4481 137.115 23.6241 137.62C23.8077 138.125 23.8996 138.742 23.8996 139.469V146.584H22.5221V139.459C22.5221 138.705 22.4035 138.115 22.1662 137.691C21.929 137.259 21.5923 136.953 21.1561 136.771C20.7198 136.589 20.2033 136.498 19.6064 136.498C18.9482 136.498 18.3705 136.626 17.873 136.882C17.3832 137.131 16.97 137.458 16.6333 137.862C16.3042 138.26 16.0517 138.688 15.8757 139.146C15.6996 139.597 15.604 140.028 15.5887 140.439Z" fill="white"/>
<path d="M26.6775 141.288V140.955C26.6775 140.16 26.8076 139.425 27.0678 138.752C27.328 138.078 27.6992 137.495 28.1813 137.003C28.6711 136.512 29.2565 136.131 29.9376 135.861C30.6187 135.585 31.3763 135.447 32.2105 135.447C33.0523 135.447 33.8137 135.585 34.4948 135.861C35.1759 136.131 35.7614 136.512 36.2511 137.003C36.7409 137.495 37.1159 138.078 37.3761 138.752C37.6363 139.425 37.7664 140.16 37.7664 140.955V141.288C37.7664 142.083 37.6363 142.818 37.3761 143.491C37.1159 144.158 36.7409 144.738 36.2511 145.23C35.769 145.721 35.1874 146.105 34.5063 146.382C33.8252 146.651 33.0676 146.786 32.2334 146.786C31.3916 146.786 30.6302 146.651 29.9491 146.382C29.268 146.105 28.6825 145.721 28.1928 145.23C27.703 144.738 27.328 144.158 27.0678 143.491C26.8076 142.818 26.6775 142.083 26.6775 141.288ZM28.0435 140.955V141.288C28.0435 141.888 28.1354 142.457 28.319 142.996C28.5027 143.528 28.7706 144.003 29.1226 144.421C29.4746 144.832 29.9108 145.155 30.4312 145.391C30.9516 145.627 31.5523 145.745 32.2334 145.745C32.9069 145.745 33.5 145.627 34.0127 145.391C34.5331 145.155 34.9693 144.832 35.3213 144.421C35.6733 144.003 35.9374 143.528 36.1134 142.996C36.297 142.457 36.3889 141.888 36.3889 141.288V140.955C36.3889 140.362 36.297 139.799 36.1134 139.267C35.9374 138.735 35.6695 138.26 35.3098 137.842C34.9578 137.424 34.5216 137.094 34.0012 136.852C33.4808 136.609 32.8839 136.488 32.2105 136.488C31.537 136.488 30.9401 136.609 30.4197 136.852C29.907 137.094 29.4708 137.424 29.1111 137.842C28.7591 138.26 28.4912 138.735 28.3076 139.267C28.1315 139.799 28.0435 140.362 28.0435 140.955ZM32.6237 131.182L35.3902 133.78V133.881H34.116L32.1875 132.041L30.2705 133.881H29.0307V133.759L31.7513 131.182H32.6237Z" fill="white"/>
<path d="M41.9792 137.984V146.584H40.6132V135.649H41.9218L41.9792 137.984ZM41.6693 140.439L41.0609 140.136C41.1068 139.489 41.256 138.883 41.5086 138.317C41.7611 137.751 42.1017 137.253 42.5302 136.821C42.9664 136.39 43.4753 136.053 44.0569 135.811C44.6462 135.568 45.2967 135.447 46.0084 135.447C46.6283 135.447 47.1831 135.521 47.6729 135.669C48.1626 135.818 48.5797 136.053 48.9241 136.377C49.2685 136.7 49.5287 137.115 49.7047 137.62C49.8883 138.125 49.9802 138.742 49.9802 139.469V146.584H48.6027V139.459C48.6027 138.705 48.4841 138.115 48.2468 137.691C48.0096 137.259 47.6729 136.953 47.2367 136.771C46.8005 136.589 46.2839 136.498 45.687 136.498C45.0288 136.498 44.4511 136.626 43.9536 136.882C43.4639 137.131 43.0506 137.458 42.7139 137.862C42.3848 138.26 42.1323 138.688 41.9563 139.146C41.7802 139.597 41.6846 140.028 41.6693 140.439Z" fill="white"/>
<path d="M61.7119 135.649H62.986V146.392C62.986 147.342 62.7794 148.157 62.3662 148.837C61.9606 149.518 61.3828 150.04 60.6328 150.404C59.8905 150.768 59.0143 150.949 58.0041 150.949C57.4914 150.949 56.9633 150.879 56.42 150.737C55.8843 150.603 55.3754 150.394 54.8933 150.111C54.4188 149.834 54.0132 149.491 53.6765 149.08L54.4456 148.342C54.9506 148.881 55.4902 149.275 56.0641 149.525C56.6381 149.781 57.258 149.909 57.9237 149.909C58.712 149.909 59.3778 149.77 59.9211 149.494C60.4721 149.218 60.8892 148.821 61.1723 148.302C61.4631 147.783 61.6085 147.16 61.6085 146.432V138.054L61.7119 135.649ZM52.9877 141.228V141.015C52.9877 140.167 53.0949 139.402 53.3091 138.721C53.5311 138.034 53.8486 137.448 54.2619 136.963C54.6751 136.471 55.1764 136.097 55.7657 135.841C56.3626 135.578 57.036 135.447 57.786 135.447C58.5054 135.447 59.1444 135.551 59.703 135.76C60.2617 135.969 60.7438 136.269 61.1494 136.66C61.555 137.051 61.8802 137.515 62.1251 138.054C62.3777 138.593 62.5613 139.193 62.6761 139.853V142.551C62.5843 143.171 62.4159 143.741 62.171 144.259C61.9261 144.771 61.6009 145.219 61.1953 145.603C60.7897 145.981 60.2999 146.274 59.726 146.483C59.1597 146.685 58.5054 146.786 57.763 146.786C57.0207 146.786 56.3549 146.651 55.7657 146.382C55.1764 146.112 54.6751 145.731 54.2619 145.24C53.8486 144.741 53.5311 144.152 53.3091 143.471C53.0949 142.791 52.9877 142.043 52.9877 141.228ZM54.3652 141.015V141.228C54.3652 141.868 54.4379 142.461 54.5833 143.006C54.7287 143.552 54.9506 144.027 55.2491 144.431C55.5476 144.835 55.9264 145.152 56.3855 145.381C56.8447 145.61 57.3842 145.725 58.0041 145.725C58.7923 145.725 59.4543 145.593 59.99 145.331C60.5257 145.061 60.9504 144.707 61.2642 144.269C61.5779 143.825 61.8075 143.34 61.9529 142.814V139.671C61.8687 139.314 61.7386 138.95 61.5626 138.58C61.3943 138.209 61.157 137.869 60.8509 137.559C60.5525 137.243 60.1698 136.99 59.703 136.801C59.2438 136.606 58.6852 136.508 58.0271 136.508C57.3995 136.508 56.8524 136.623 56.3855 136.852C55.9264 137.081 55.5476 137.401 55.2491 137.812C54.9506 138.216 54.7287 138.691 54.5833 139.237C54.4379 139.782 54.3652 140.375 54.3652 141.015Z" fill="white"/>
<path d="M76.8988 145.745C77.4804 145.745 78.0237 145.651 78.5288 145.462C79.0415 145.267 79.4624 144.98 79.7915 144.603C80.1282 144.219 80.3195 143.751 80.3655 143.198H81.6741C81.6358 143.892 81.3948 144.512 80.9509 145.058C80.5147 145.597 79.9407 146.021 79.229 146.331C78.525 146.634 77.7482 146.786 76.8988 146.786C76.034 146.786 75.2687 146.648 74.6029 146.372C73.9448 146.095 73.3938 145.711 72.9499 145.219C72.5061 144.721 72.1694 144.141 71.9398 143.481C71.7178 142.814 71.6069 142.097 71.6069 141.329V140.904C71.6069 140.136 71.7178 139.422 71.9398 138.762C72.1694 138.095 72.5061 137.515 72.9499 137.024C73.3938 136.525 73.9448 136.138 74.6029 135.861C75.2611 135.585 76.0225 135.447 76.8873 135.447C77.775 135.447 78.5709 135.605 79.2749 135.922C79.9867 136.239 80.553 136.687 80.9739 137.266C81.4024 137.846 81.6358 138.533 81.6741 139.328H80.3655C80.3272 138.742 80.1512 138.236 79.8374 137.812C79.5237 137.387 79.1104 137.061 78.5977 136.832C78.0849 136.603 77.5148 136.488 76.8873 136.488C76.1832 136.488 75.5825 136.609 75.0851 136.852C74.5876 137.088 74.182 137.414 73.8683 137.832C73.5622 138.243 73.3364 138.715 73.191 139.247C73.0456 139.772 72.9729 140.325 72.9729 140.904V141.329C72.9729 141.915 73.0418 142.474 73.1795 143.006C73.3249 143.532 73.5507 144 73.8568 144.411C74.1706 144.822 74.5762 145.149 75.0736 145.391C75.5787 145.627 76.1871 145.745 76.8988 145.745Z" fill="white"/>
<path d="M85.8066 131.061V146.584H84.4406V131.061H85.8066ZM85.4966 140.439L84.8882 140.136C84.9342 139.489 85.0834 138.883 85.3359 138.317C85.5885 137.751 85.929 137.253 86.3576 136.821C86.7938 136.39 87.3027 136.053 87.8843 135.811C88.4736 135.568 89.124 135.447 89.8358 135.447C90.4556 135.447 91.0105 135.521 91.5002 135.669C91.99 135.818 92.4071 136.053 92.7515 136.377C93.0958 136.7 93.356 137.115 93.532 137.62C93.7157 138.125 93.8075 138.742 93.8075 139.469V146.584H92.43V139.459C92.43 138.705 92.3114 138.115 92.0742 137.691C91.837 137.259 91.5002 136.953 91.064 136.771C90.6278 136.589 90.1113 136.498 89.5143 136.498C88.8562 136.498 88.2784 136.626 87.781 136.882C87.2912 137.131 86.878 137.458 86.5412 137.862C86.2122 138.26 85.9596 138.688 85.7836 139.146C85.6076 139.597 85.5119 140.028 85.4966 140.439Z" fill="white"/>
<path d="M98.8469 135.649V146.584H97.4809V135.649H98.8469ZM98.7206 133.951H97.6875L97.676 132.678C98.1275 132.651 98.491 132.604 98.7665 132.537C99.0497 132.469 99.2563 132.372 99.3864 132.244C99.5242 132.109 99.593 131.937 99.593 131.728C99.593 131.546 99.528 131.398 99.3979 131.283C99.2678 131.162 99.0918 131.064 98.8698 130.99C98.6479 130.91 98.3992 130.856 98.1237 130.829C97.8482 130.795 97.5689 130.778 97.2857 130.778L97.3661 130C97.8865 130 98.3533 130.04 98.7665 130.121C99.1874 130.195 99.5433 130.31 99.8341 130.465C100.133 130.62 100.358 130.805 100.511 131.021C100.664 131.236 100.741 131.479 100.741 131.748C100.741 132.274 100.538 132.658 100.133 132.9C99.7269 133.136 99.2563 133.278 98.7206 133.325V133.951Z" fill="white"/>
<path d="M109.844 131.061V146.584H108.478V131.061H109.844Z" fill="white"/>
<path d="M121.151 144.623V138.984C121.151 138.465 121.028 138.017 120.784 137.64C120.539 137.263 120.179 136.973 119.704 136.771C119.23 136.569 118.645 136.468 117.948 136.468C117.305 136.468 116.731 136.569 116.226 136.771C115.729 136.966 115.335 137.232 115.044 137.569C114.761 137.899 114.619 138.267 114.619 138.671L113.242 138.661C113.242 138.25 113.357 137.852 113.586 137.468C113.816 137.084 114.141 136.741 114.562 136.437C114.983 136.134 115.484 135.895 116.066 135.72C116.655 135.538 117.302 135.447 118.006 135.447C118.893 135.447 119.674 135.578 120.347 135.841C121.028 136.104 121.56 136.498 121.943 137.024C122.326 137.549 122.517 138.209 122.517 139.004V144.29C122.517 144.667 122.547 145.058 122.609 145.462C122.678 145.866 122.773 146.2 122.896 146.462V146.584H121.438C121.346 146.341 121.273 146.038 121.22 145.674C121.174 145.304 121.151 144.953 121.151 144.623ZM121.472 140.217L121.495 141.147H118.798C118.094 141.147 117.462 141.204 116.904 141.319C116.353 141.426 115.886 141.588 115.503 141.804C115.12 142.013 114.826 142.265 114.619 142.562C114.42 142.858 114.321 143.195 114.321 143.572C114.321 143.963 114.432 144.32 114.654 144.643C114.883 144.967 115.205 145.226 115.618 145.422C116.039 145.61 116.536 145.705 117.11 145.705C117.875 145.705 118.549 145.58 119.131 145.331C119.72 145.081 120.206 144.755 120.588 144.35C120.971 143.946 121.227 143.505 121.357 143.026L121.954 143.724C121.855 144.061 121.671 144.408 121.403 144.765C121.143 145.115 120.803 145.445 120.382 145.755C119.961 146.058 119.463 146.308 118.889 146.503C118.323 146.692 117.68 146.786 116.961 146.786C116.15 146.786 115.442 146.651 114.837 146.382C114.24 146.112 113.774 145.745 113.437 145.28C113.108 144.808 112.943 144.276 112.943 143.683C112.943 143.144 113.073 142.663 113.334 142.238C113.594 141.807 113.969 141.443 114.459 141.147C114.956 140.844 115.553 140.615 116.249 140.46C116.953 140.298 117.742 140.217 118.614 140.217H121.472ZM117.11 131.071L119.291 133.901H118.051L115.446 131.071H117.11Z" fill="white"/>
<path d="M136.521 145.745C137.103 145.745 137.646 145.651 138.151 145.462C138.664 145.267 139.085 144.98 139.414 144.603C139.751 144.219 139.942 143.751 139.988 143.198H141.297C141.258 143.892 141.017 144.512 140.574 145.058C140.137 145.597 139.563 146.021 138.852 146.331C138.148 146.634 137.371 146.786 136.521 146.786C135.657 146.786 134.891 146.648 134.226 146.372C133.567 146.095 133.016 145.711 132.573 145.219C132.129 144.721 131.792 144.141 131.562 143.481C131.341 142.814 131.23 142.097 131.23 141.329V140.904C131.23 140.136 131.341 139.422 131.562 138.762C131.792 138.095 132.129 137.515 132.573 137.024C133.016 136.525 133.567 136.138 134.226 135.861C134.884 135.585 135.645 135.447 136.51 135.447C137.398 135.447 138.194 135.605 138.898 135.922C139.609 136.239 140.176 136.687 140.597 137.266C141.025 137.846 141.258 138.533 141.297 139.328H139.988C139.95 138.742 139.774 138.236 139.46 137.812C139.146 137.387 138.733 137.061 138.22 136.832C137.708 136.603 137.137 136.488 136.51 136.488C135.806 136.488 135.205 136.609 134.708 136.852C134.21 137.088 133.805 137.414 133.491 137.832C133.185 138.243 132.959 138.715 132.814 139.247C132.668 139.772 132.596 140.325 132.596 140.904V141.329C132.596 141.915 132.664 142.474 132.802 143.006C132.948 143.532 133.173 144 133.479 144.411C133.793 144.822 134.199 145.149 134.696 145.391C135.201 145.627 135.81 145.745 136.521 145.745Z" fill="white"/>
<path d="M145.429 131.061V146.584H144.063V131.061H145.429ZM145.119 140.439L144.511 140.136C144.557 139.489 144.706 138.883 144.959 138.317C145.211 137.751 145.552 137.253 145.98 136.821C146.416 136.39 146.925 136.053 147.507 135.811C148.096 135.568 148.747 135.447 149.458 135.447C150.078 135.447 150.633 135.521 151.123 135.669C151.613 135.818 152.03 136.053 152.374 136.377C152.718 136.7 152.979 137.115 153.155 137.62C153.338 138.125 153.43 138.742 153.43 139.469V146.584H152.053V139.459C152.053 138.705 151.934 138.115 151.697 137.691C151.46 137.259 151.123 136.953 150.687 136.771C150.25 136.589 149.734 136.498 149.137 136.498C148.479 136.498 147.901 136.626 147.404 136.882C146.914 137.131 146.501 137.458 146.164 137.862C145.835 138.26 145.582 138.688 145.406 139.146C145.23 139.597 145.135 140.028 145.119 140.439Z" fill="white"/>
<path d="M164.921 144.057V135.649H166.298V146.584H164.978L164.921 144.057ZM165.173 142.036L165.885 142.016C165.885 142.703 165.793 143.336 165.61 143.916C165.426 144.495 165.139 145 164.749 145.432C164.358 145.863 163.853 146.196 163.233 146.432C162.614 146.668 161.867 146.786 160.995 146.786C160.39 146.786 159.836 146.712 159.33 146.564C158.833 146.409 158.404 146.166 158.045 145.836C157.685 145.506 157.406 145.078 157.207 144.552C157.016 144.027 156.92 143.39 156.92 142.642V135.649H158.286V142.663C158.286 143.249 158.359 143.737 158.504 144.128C158.657 144.519 158.864 144.832 159.124 145.068C159.392 145.304 159.698 145.472 160.042 145.573C160.387 145.674 160.758 145.725 161.156 145.725C162.166 145.725 162.962 145.553 163.543 145.209C164.133 144.866 164.55 144.414 164.795 143.855C165.047 143.289 165.173 142.683 165.173 142.036Z" fill="white"/>
<path d="M173.576 145.492L177.445 135.649H178.925L173.668 148.342C173.561 148.591 173.423 148.868 173.255 149.171C173.094 149.474 172.88 149.764 172.612 150.04C172.352 150.323 172.023 150.552 171.625 150.727C171.234 150.909 170.756 151 170.19 151C170.044 151 169.857 150.983 169.627 150.949C169.405 150.923 169.245 150.896 169.145 150.869L169.134 149.848C169.218 149.868 169.34 149.885 169.501 149.898C169.662 149.912 169.773 149.919 169.834 149.919C170.331 149.919 170.748 149.845 171.085 149.696C171.429 149.548 171.716 149.326 171.946 149.029C172.176 148.74 172.378 148.376 172.554 147.938L173.576 145.492ZM169.96 135.649L173.92 145.038L174.288 146.301L173.289 146.796L168.468 135.649H169.96Z" fill="white"/>
<path d="M185.71 146.786C184.898 146.786 184.152 146.654 183.471 146.392C182.798 146.129 182.208 145.758 181.703 145.28C181.206 144.802 180.819 144.236 180.544 143.582C180.276 142.922 180.142 142.201 180.142 141.42V140.985C180.142 140.143 180.284 139.382 180.567 138.701C180.85 138.021 181.24 137.438 181.738 136.953C182.235 136.468 182.801 136.097 183.437 135.841C184.08 135.578 184.753 135.447 185.457 135.447C186.245 135.447 186.945 135.572 187.558 135.821C188.17 136.064 188.683 136.41 189.096 136.862C189.517 137.307 189.834 137.835 190.049 138.449C190.263 139.055 190.37 139.725 190.37 140.46V141.197H180.969V140.167H189.004V140.025C188.989 139.412 188.847 138.839 188.579 138.307C188.319 137.768 187.929 137.33 187.408 136.993C186.888 136.656 186.238 136.488 185.457 136.488C184.875 136.488 184.34 136.596 183.85 136.811C183.368 137.027 182.951 137.337 182.599 137.741C182.254 138.139 181.986 138.614 181.795 139.166C181.611 139.712 181.52 140.318 181.52 140.985V141.42C181.52 142.026 181.619 142.592 181.818 143.117C182.025 143.636 182.316 144.094 182.691 144.492C183.073 144.889 183.525 145.199 184.045 145.422C184.565 145.644 185.139 145.755 185.767 145.755C186.502 145.755 187.152 145.637 187.718 145.401C188.285 145.159 188.794 144.778 189.245 144.259L190.106 144.846C189.838 145.196 189.501 145.519 189.096 145.816C188.698 146.112 188.22 146.348 187.661 146.523C187.102 146.698 186.452 146.786 185.71 146.786ZM181.83 134.133L184.917 131.688H186.249L189.348 134.133H187.73L185.583 132.395L183.437 134.133H181.83ZM188.625 132.446L190.313 130.111H191.885L189.796 132.446H188.625Z" fill="white"/>
<path d="M194.445 137.984V146.584H193.079V135.649H194.388L194.445 137.984ZM194.135 140.439L193.527 140.136C193.573 139.489 193.722 138.883 193.975 138.317C194.227 137.751 194.568 137.253 194.996 136.821C195.432 136.39 195.941 136.053 196.523 135.811C197.112 135.568 197.763 135.447 198.474 135.447C199.094 135.447 199.649 135.521 200.139 135.669C200.629 135.818 201.046 136.053 201.39 136.377C201.734 136.7 201.995 137.115 202.171 137.62C202.354 138.125 202.446 138.742 202.446 139.469V146.584H201.069V139.459C201.069 138.705 200.95 138.115 200.713 137.691C200.476 137.259 200.139 136.953 199.703 136.771C199.266 136.589 198.75 136.498 198.153 136.498C197.495 136.498 196.917 136.626 196.42 136.882C195.93 137.131 195.517 137.458 195.18 137.862C194.851 138.26 194.598 138.688 194.422 139.146C194.246 139.597 194.151 140.028 194.135 140.439Z" fill="white"/>
<path d="M219.814 144.462V131.061H221.192V146.584H219.906L219.814 144.462ZM211.193 141.228V141.015C211.193 140.167 211.304 139.402 211.526 138.721C211.748 138.034 212.066 137.448 212.479 136.963C212.9 136.471 213.405 136.097 213.994 135.841C214.583 135.578 215.249 135.447 215.992 135.447C216.719 135.447 217.361 135.551 217.92 135.76C218.479 135.969 218.957 136.269 219.355 136.66C219.76 137.051 220.086 137.515 220.331 138.054C220.583 138.593 220.767 139.193 220.882 139.853V142.551C220.79 143.171 220.621 143.741 220.377 144.259C220.132 144.771 219.806 145.219 219.401 145.603C218.995 145.981 218.505 146.274 217.931 146.483C217.365 146.685 216.711 146.786 215.969 146.786C215.234 146.786 214.572 146.651 213.983 146.382C213.393 146.112 212.892 145.731 212.479 145.24C212.066 144.741 211.748 144.152 211.526 143.471C211.304 142.791 211.193 142.043 211.193 141.228ZM212.571 141.015V141.228C212.571 141.868 212.643 142.461 212.789 143.006C212.934 143.552 213.156 144.027 213.455 144.431C213.753 144.835 214.132 145.152 214.591 145.381C215.05 145.61 215.594 145.725 216.221 145.725C217.009 145.725 217.671 145.593 218.207 145.331C218.743 145.061 219.171 144.707 219.493 144.269C219.814 143.825 220.047 143.34 220.193 142.814V139.671C220.101 139.314 219.967 138.95 219.791 138.58C219.615 138.209 219.374 137.869 219.068 137.559C218.769 137.243 218.387 136.99 217.92 136.801C217.461 136.606 216.902 136.508 216.244 136.508C215.609 136.508 215.062 136.623 214.603 136.852C214.143 137.081 213.761 137.401 213.455 137.812C213.156 138.216 212.934 138.691 212.789 139.237C212.643 139.782 212.571 140.375 212.571 141.015ZM223.189 132.84V133.881H216.164V132.84H223.189Z" fill="white"/>
<path d="M226.725 135.649V146.584H225.358V135.649H226.725ZM225.117 132.486C225.117 132.257 225.198 132.065 225.358 131.91C225.527 131.748 225.756 131.667 226.047 131.667C226.338 131.667 226.568 131.748 226.736 131.91C226.912 132.065 227 132.257 227 132.486C227 132.708 226.912 132.9 226.736 133.062C226.568 133.217 226.338 133.295 226.047 133.295C225.756 133.295 225.527 133.217 225.358 133.062C225.198 132.9 225.117 132.708 225.117 132.486Z" fill="white"/>
</svg>
